<?xml version="1.0" encoding="UTF-8" standalone="no"?>
<!-- Created with Inkscape (http://www.inkscape.org/) -->

<svg
   xmlns:dc="http://purl.org/dc/elements/1.1/"
   xmlns:cc="http://creativecommons.org/ns#"
   xmlns:rdf="http://www.w3.org/1999/02/22-rdf-syntax-ns#"
   xmlns:svg="http://www.w3.org/2000/svg"
   xmlns="http://www.w3.org/2000/svg"
   xmlns:sodipodi="http://sodipodi.sourceforge.net/DTD/sodipodi-0.dtd"
   xmlns:inkscape="http://www.inkscape.org/namespaces/inkscape"
   width="1511.5178"
   height="1511.5178"
   viewBox="0 0 399.9224 399.92243"
   version="1.1"
   id="svg8"
   inkscape:version="0.92.1 r15371"
   sodipodi:docname="profile.svg">
  <defs
     id="defs2" />
  <sodipodi:namedview
     id="base"
     pagecolor="#ffffff"
     bordercolor="#666666"
     borderopacity="1.0"
     inkscape:pageopacity="0.0"
     inkscape:pageshadow="2"
     inkscape:zoom="0.47504143"
     inkscape:cx="764.17918"
     inkscape:cy="835.75886"
     inkscape:document-units="px"
     inkscape:current-layer="layer1"
     showgrid="false"
     borderlayer="true"
     showborder="true"
     inkscape:showpageshadow="false"
     fit-margin-top="10"
     fit-margin-left="10"
     fit-margin-right="10"
     fit-margin-bottom="10"
     units="px"
     inkscape:window-width="1920"
     inkscape:window-height="1016"
     inkscape:window-x="0"
     inkscape:window-y="27"
     inkscape:window-maximized="1" />
  <metadata
     id="metadata5">
    <rdf:RDF>
      <cc:Work
         rdf:about="">
        <dc:format>image/svg+xml</dc:format>
        <dc:type
           rdf:resource="http://purl.org/dc/dcmitype/StillImage" />
        <dc:title></dc:title>
      </cc:Work>
    </rdf:RDF>
  </metadata>
  <g
     inkscape:label="Layer 1"
     inkscape:groupmode="layer"
     id="layer1"
     transform="translate(-40.038794,88.469339)">
    <circle
       style="color:#000000;clip-rule:nonzero;display:inline;overflow:visible;visibility:visible;opacity:1;isolation:auto;mix-blend-mode:normal;color-interpolation:sRGB;color-interpolation-filters:linearRGB;solid-color:#000000;solid-opacity:1;fill:#fffefe;fill-opacity:1;fill-rule:nonzero;stroke:#000000;stroke-width:3.7626729;stroke-linecap:round;stroke-linejoin:miter;stroke-miterlimit:4;stroke-dasharray:none;stroke-dashoffset:0;stroke-opacity:1;color-rendering:auto;image-rendering:auto;shape-rendering:auto;text-rendering:auto;enable-background:accumulate"
       id="path4607"
       cx="240"
       cy="111.49187"
       r="195.43404" />
    <path
       style="color:#000000;clip-rule:nonzero;display:inline;overflow:visible;visibility:visible;opacity:1;isolation:auto;mix-blend-mode:normal;color-interpolation:sRGB;color-interpolation-filters:linearRGB;solid-color:#000000;solid-opacity:1;fill:#000000;fill-opacity:1;fill-rule:nonzero;stroke:none;stroke-width:0.91471148;stroke-linecap:round;stroke-linejoin:miter;stroke-miterlimit:4;stroke-dasharray:none;stroke-dashoffset:0;stroke-opacity:1;color-rendering:auto;image-rendering:auto;shape-rendering:auto;text-rendering:auto;enable-background:accumulate"
       d="m 239.90362,-68.697943 c -1.34085,-0.02265 -2.67089,0.37917 -3.67729,1.211208 L 61.591514,76.891962 c -2.012799,1.664075 -1.944987,4.39974 0.151929,6.133357 l 12.68708,10.488998 c 2.096915,1.733617 5.405353,1.789255 7.418152,0.125179 L 110.31774,70.102803 v 159.549727 14.83354 0.61522 c 0,2.35337 2.38716,4.24799 5.35264,4.24799 h 17.94257 c 73.66936,-1.07714 148.00943,-0.45096 211.1866,0 h 17.94256 c 2.96551,-3e-5 5.35266,-1.89462 5.35266,-4.24799 V 68.790343 l 30.05656,24.849153 c 2.01279,1.664076 5.32122,1.60844 7.41815,-0.125179 l 12.68708,-10.488998 c 2.09691,-1.733612 2.16472,-4.469282 0.15193,-6.133357 L 243.77367,-67.486735 c -1.03048,-0.851946 -2.40067,-1.249686 -3.77393,-1.205653 -0.032,-8.26e-4 -0.0641,-0.005 -0.0961,-0.0058 z m 0.0966,31.58662 99.44665,82.217149 V 225.22683 H 138.9656 V 46.418286 Z"
       id="rect4487"
       inkscape:connector-curvature="0"
       sodipodi:nodetypes="cssssscccsscccscccscsccccccccc" />
    <g
       aria-label="W"
       style="font-style:normal;font-weight:normal;font-size:5.29166651px;line-height:125%;font-family:sans-serif;letter-spacing:0px;word-spacing:0px;fill:#000000;fill-opacity:1;stroke:none;stroke-width:0.26458332px;stroke-linecap:butt;stroke-linejoin:miter;stroke-opacity:1"
       id="text4509"
       transform="matrix(5.1154434,0,0,5.1154434,-827.44947,78.431125)">
      <path
         d="m 225.2209,-1.5181686 q 0.19844,-0.6201171 0.19844,-1.0914062 0,-0.5953125 -0.29766,-0.9177734 -0.59531,-0.5705078 -2.1332,-0.6449219 l -0.81856,-0.049609 q -0.14883,0 -0.29765,-0.099219 -0.12403,-0.1240234 -0.12403,-0.2976563 v -0.9673828 l 0.12403,-0.099219 q 4.06796,0.099219 5.58105,0.099219 0.89297,0 4.66328,-0.099219 l 0.0992,0.099219 v 0.9673828 q 0,0.396875 -0.39688,0.396875 -1.93476,0.099219 -2.85253,0.9425781 -0.91778,0.8185547 -1.46348,2.35644532 l -9.5002,27.53320298 q -0.37207,1.190625 -1.36425,1.190625 -1.16582,0 -1.5875,-1.240235 L 209.09785,8.5277297 q -0.49609,-1.4138671 -0.69453,-1.4138671 -0.32246,0 -0.71934,1.265039 l -6.05234,18.1818354 q -0.34727,1.240235 -1.41387,1.240235 -1.19062,0 -1.56269,-1.240235 l -9.25215,-27.6324212 q -0.69453,-2.058789 -1.24023,-2.5548828 -0.5209,-0.4960937 -2.20762,-0.5953125 -0.62012,-0.099219 -0.62012,-0.3472656 v -1.0169922 l 0.0992,-0.099219 q 4.06797,0.099219 4.93613,0.099219 1.01699,0 5.77949,-0.099219 l 0.0992,0.099219 v 0.9673828 q 0,0.396875 -0.44648,0.396875 l -1.11621,0.049609 q -1.43867,0.074414 -1.43867,0.9673828 0,0.4216797 0.32246,1.3394531 l 7.61504,23.4156246 h 0.0992 l 5.38262,-16.8175778 q 0.34727,-1.0914062 0.34727,-1.9347656 0,-0.79375 -0.24805,-1.4138672 l -0.74414,-2.35644525 q -0.19844,-0.62011715 -0.39687,-1.04179685 -0.19844,-0.4216797 -0.62012,-0.9673828 -0.39688,-0.5705078 -1.09141,-0.8681641 -0.69453,-0.3224609 -1.66191,-0.3720703 -0.62012,0 -0.62012,-0.3472656 v -1.0169922 l 0.12402,-0.099219 q 4.06797,0.099219 5.20899,0.099219 1.43867,0 6.20117,-0.099219 l 0.0992,0.099219 v 1.0169922 q 0,0.3472656 -0.44649,0.3472656 l -1.46347,0.099219 q -1.43867,0.099219 -1.43867,1.5130859 0,0.6697266 0.32246,1.63710935 l 7.29257,22.62187465 h 0.12403 z"
         style="font-style:normal;font-variant:normal;font-weight:normal;font-stretch:normal;font-size:50.79999924px;line-height:126.99999809%;font-family:'UKIJ Zilwa';-inkscape-font-specification:'UKIJ Zilwa';stroke-width:0.26458332px"
         id="path4511"
         inkscape:connector-curvature="0" />
    </g>
  </g>
</svg>
